<svg
  xmlns="http://www.w3.org/2000/svg"
  viewBox="0 0 151.27 151.27"
  width="48"
  height="48"
  preserveAspectRatio="xMidYMid meet"
>
  <style>
    .cls-1 { fill: #B6DCE1; }
    .cls-2 { fill: #1C355E; }
  </style>
  <g id="Layer_2" data-name="Layer 2">
    <g id="Layer_1-2" data-name="Layer 1">
      <circle class="cls-1" cx="75.64" cy="75.64" r="75.64" />
      <path
        class="cls-2"
        d="M102,75.23,93.31,54.49a.08.08,0,0,1,.07-.11h10.1a.08.08,0,0,1,.07,0l7.15,17.16a6.66,6.66,0,0,0,6.15,4.11v0a6.68,6.68,0,0,1-11.43,4.7A16.07,16.07,0,0,1,102,75.23Zm20-20.77V77.65a14.47,14.47,0,0,1-13,14.57,14.18,14.18,0,0,1-14.28-8.69h0L85.56,61.67a11.83,11.83,0,0,0-21.85,0L54.6,83.53h0A14.21,14.21,0,1,1,41.48,63.85h0a14.14,14.14,0,0,1,9.11,3.31.07.07,0,0,0,.11,0l3.68-8.85a.07.07,0,0,0,0-.09,23.49,23.49,0,0,0-12.87-3.81h0A23.68,23.68,0,1,0,63.19,87.53h16.1a.07.07,0,0,0,.08-.07h0A9.4,9.4,0,0,0,70,78.06H67.14l5.25-12.61a2.54,2.54,0,0,1,1.7-1.54,2.37,2.37,0,0,1,2.73,1.4l9.11,21.86h0a23.66,23.66,0,0,0,23.35,14.52c12.23-.76,22.19-12,22.19-24.26v-23a.09.09,0,0,0-.08-.08h-9.32A.08.08,0,0,0,122,54.46Z"
      />
    </g>
  </g>
</svg>

